<?xml version="1.0" encoding="UTF-8"?>
<!DOCTYPE svg PUBLIC "-//W3C//DTD SVG 1.1//EN" "http://www.w3.org/Graphics/SVG/1.1/DTD/svg11.dtd">
<!-- Creator: CorelDRAW 2019 (64-Bit) -->
<svg xmlns="http://www.w3.org/2000/svg" xml:space="preserve" width="651px" height="546px" version="1.1" style="shape-rendering:geometricPrecision; text-rendering:geometricPrecision; image-rendering:optimizeQuality; fill-rule:evenodd; clip-rule:evenodd"
viewBox="0 0 125.02 104.8"
 xmlns:xlink="http://www.w3.org/1999/xlink">
 <defs>
  <style type="text/css">
   <![CDATA[
    .str1 {stroke:#61DAFB;stroke-width:3.07;stroke-linecap:round;stroke-miterlimit:22.9256}
    .str0 {stroke:#61DAFB;stroke-width:3.07;stroke-linecap:round;stroke-linejoin:round;stroke-miterlimit:22.9256}
    .fil1 {fill:none}
    .fil0 {fill:#61DAFB;fill-rule:nonzero}
   ]]>
  </style>
 </defs>
 <g id="Слой_x0020_1">
  <metadata id="CorelCorpID_0Corel-Layer"/>
  <g id="_2842950001744">
   <path class="fil0" d="M63.18 68.53c39.94,-0.19 31.69,-16.32 52.81,-16.97 -3.41,3.84 -7.14,7.4 -11.16,10.65 -4.04,3.26 -8.33,6.09 -12.88,8.48 -4.55,2.39 -9.3,4.27 -14.25,5.62 -4.97,1.36 -10.06,2.04 -15.29,2.04 -5.23,0 -10.32,-0.68 -15.27,-2.04 -4.96,-1.35 -9.71,-3.23 -14.27,-5.62 -4.55,-2.39 -8.84,-5.22 -12.89,-8.48 -4.06,-3.25 -7.77,-6.81 -11.15,-10.65 16.52,0.08 14.41,17.17 54.35,16.97z"/>
   <path class="fil1 str0" d="M12.1 66.42c-6.53,9.22 -10.37,15.37 -10.37,15.37"/>
   <path class="fil1 str1" d="M29.78 75.77c-4.82,10.21 -7.53,16.93 -7.53,16.93"/>
   <path class="fil1 str1" d="M47.25 82.68c-3.52,10.73 -5.39,17.73 -5.39,17.73"/>
   <path class="fil1 str1" d="M62.69 84.43c-0.22,11.3 0.06,18.54 0.06,18.54"/>
   <path class="fil1 str0" d="M112.92 66.42c6.53,9.22 10.37,15.37 10.37,15.37"/>
   <path class="fil1 str1" d="M95.24 75.77c4.82,10.21 7.53,16.93 7.53,16.93"/>
   <path class="fil1 str1" d="M77.76 82.68c3.53,10.73 5.39,17.73 5.39,17.73"/>
   <polygon class="fil1" points="0,0 125.02,0 125.02,104.8 0,104.8 "/>
  </g>
 </g>
</svg>
