<?xml version="1.0" encoding="UTF-8"?>
<!DOCTYPE svg PUBLIC "-//W3C//DTD SVG 1.1//EN" "http://www.w3.org/Graphics/SVG/1.1/DTD/svg11.dtd">
<!-- Creator: CorelDRAW 2019 (64-Bit) -->
<svg xmlns="http://www.w3.org/2000/svg" xml:space="preserve" width="200px" height="246px" version="1.1" style="shape-rendering:geometricPrecision; text-rendering:geometricPrecision; image-rendering:optimizeQuality; fill-rule:evenodd; clip-rule:evenodd"
viewBox="0 0 260.28 319.59"
 xmlns:xlink="http://www.w3.org/1999/xlink">
 <defs>
  <style type="text/css">
   <![CDATA[
    .fil0 {fill:#61DAFB}
   ]]>
  </style>
 </defs>
 <g id="Слой_x0020_1">
  <metadata id="CorelCorpID_0Corel-Layer"/>
  <g id="_2842775482256">
   <path class="fil0" d="M0.01 319.57l260.25 0.02c0.15,-1.91 -0.7,-7.66 -0.9,-9.99 -0.32,-3.52 -0.75,-6.85 -1.17,-10.37 -1.16,-9.53 -4.44,-35.03 -9.66,-42.22 -1.85,-2.54 -19.92,-12.68 -24.99,-15.5 -13.7,-7.6 -37.57,-17.02 -53.26,-16.24 -0.75,1.11 -11.06,40.23 -12.21,44.91l-12.14 45.23c-0.81,-4.62 -2.39,-24.82 -2.8,-30.52 -0.26,-3.62 -2.23,-29.41 -2.82,-30.6l-20.5 -0.11c-0.17,6.62 -2.01,22.51 -2.62,30.42 -0.4,5.1 -0.76,9.94 -1.31,15.03l-1.52 15.29c-1.72,-4.44 -4.66,-16.87 -6.16,-22.26 -2.04,-7.31 -4.01,-14.89 -5.97,-22.5 -3.86,-14.97 -8.05,-29.96 -12.02,-44.93 -17.36,0.06 -29.13,5.03 -41.27,10.31 -12.14,5.28 -27.67,14.25 -37.03,21.05 -4.84,4.39 -9.15,36.71 -9.74,42.49 -0.34,3.22 -2.3,18.68 -2.16,20.49z"/>
   <path class="fil0" d="M132.9 124.34c-17.38,0 -33.31,-1.54 -47.86,-9.38l-6.83 -3.64 -10.58 -10.66c-0.28,4.18 1.29,7.63 1.81,11.13 -2.04,-0.99 -6.87,-5.29 -10.39,3.16 -3.67,8.8 -0.8,27.26 6.99,33.23 2.65,2.03 3.76,1.58 6.56,0.61 3.9,23.57 12.41,48.81 33.51,60.66 7.64,4.29 15.97,6.37 26.17,6.38 27.88,0.04 41.07,-21.07 49.28,-42.27 2.41,-6.23 5.39,-17.22 6.31,-24.31 3.47,-0.01 5.85,1.64 10.3,-5.76 4.41,-7.36 6.05,-19.74 3.42,-27.65 -0.65,-1.95 -1.7,-3.92 -3.29,-5.08 -2.46,-1.79 -4.07,-0.63 -6.4,0.23l2.18 -11.96c-1.83,1.43 -5.43,7.47 -12.93,12.32 -14.38,9.3 -29.51,12.99 -48.25,12.99z"/>
   <path class="fil0" d="M129.81 62.19c19.09,0.01 46.63,5.37 62.72,11.69 1.38,0.54 4.57,2.21 5.76,1.53l13.5 -10.95c1.41,-1.1 3.83,-2.39 3.55,-4.4 -0.42,-2.94 -10.05,-5.09 -15.92,-16.52 -1.97,-3.83 -2.76,-7.98 -3.6,-12.49 -1.35,-7.19 -0.86,-7.09 -8.86,-7.16 -5.51,-0.05 -9.7,-0.98 -14.94,-1.52 -5.47,-0.58 -8.64,-0.75 -13.34,-2.68 -5.17,-2.1 -18.07,-12.59 -23.72,-16.72 -5.86,-4.28 -3.86,-4.26 -12.45,2.18l-11.47 8.61c-10,7.11 -10.66,7.33 -23.78,8.67 -2.26,0.23 -5.15,0.74 -7.18,0.75 -2.93,0.03 -4.33,0.79 -7.1,0.84 -2.16,0.03 -5.91,-0.38 -7.01,1.17 -1.6,2.25 -1.29,11.07 -5.41,19.02 -5.87,11.33 -16.17,12.86 -15.6,16.65 0.21,1.41 7.01,6.4 8.49,7.56 12.88,10.12 5.28,7.76 20.95,3.22 16.98,-4.93 35.54,-9.45 55.41,-9.45z"/>
   <path class="fil0" d="M64.91 81.33c0.29,4.71 5.48,12.98 8.47,16.58 4.05,4.87 8.63,8.28 13.79,11.25 21.2,12.22 64.81,12.25 85.93,0.04 5.42,-3.14 9.56,-6.25 13.8,-11.25 2.8,-3.31 8.03,-11.51 8.53,-16.62 -0.27,-0.19 0.05,-0.03 -0.66,-0.39 -4.81,-2.51 -23.72,-7.47 -28.39,-8.43 -11.9,-2.47 -22.31,-4.43 -35.03,-4.42 -11.19,0 -25.89,1.58 -35.83,4.04 -6.51,1.61 -25.9,6.07 -30.61,9.2z"/>
   <path class="fil0" d="M119.86 248.58l20.56 -0.08c1.28,-2.44 6.78,-13.83 6.81,-16.73 0.08,-8.61 -9.4,-6.53 -17.11,-6.53 -6.97,0 -17.49,-2.08 -16.99,6.49 0.25,4.2 5.22,12.78 6.73,16.85z"/>
  </g>
 </g>
</svg>
