<?xml version="1.0" encoding="UTF-8"?>
<!DOCTYPE svg PUBLIC "-//W3C//DTD SVG 1.1//EN" "http://www.w3.org/Graphics/SVG/1.1/DTD/svg11.dtd">
<!-- Creator: CorelDRAW 2019 (64-Bit) -->
<svg xmlns="http://www.w3.org/2000/svg" xml:space="preserve" width="651px" height="545px" version="1.1" style="shape-rendering:geometricPrecision; text-rendering:geometricPrecision; image-rendering:optimizeQuality; fill-rule:evenodd; clip-rule:evenodd"
viewBox="0 0 212.97 178.29"
 xmlns:xlink="http://www.w3.org/1999/xlink">
 <defs>
  <style type="text/css">
   <![CDATA[
    .str1 {stroke:#61DAFB;stroke-width:5.23;stroke-linecap:round;stroke-miterlimit:22.9256}
    .str0 {stroke:#61DAFB;stroke-width:5.23;stroke-linecap:round;stroke-linejoin:round;stroke-miterlimit:22.9256}
    .fil1 {fill:none}
    .fil0 {fill:#61DAFB;fill-rule:nonzero}
   ]]>
  </style>
 </defs>
 <g id="Слой_x0020_1">
  <metadata id="CorelCorpID_0Corel-Layer"/>
  <g id="_2842889149936">
   <path class="fil0" d="M106.32 43.18c8.91,0 17.58,1.16 26.04,3.47 8.43,2.31 16.52,5.51 24.28,9.58 7.76,4.08 15.06,8.92 21.94,14.49 6.84,5.59 13.2,11.62 19.01,18.1 -5.81,6.54 -12.17,12.59 -19.01,18.13 -6.88,5.57 -14.18,10.37 -21.94,14.45 -7.76,4.08 -15.85,7.27 -24.28,9.58 -8.46,2.32 -17.13,3.47 -26.04,3.47 -8.91,0 -17.59,-1.15 -26.01,-3.47 -8.46,-2.31 -16.55,-5.5 -24.31,-9.58 -7.76,-4.08 -15.06,-8.88 -21.97,-14.45 -6.9,-5.54 -13.23,-11.59 -18.98,-18.13 5.75,-6.48 12.08,-12.51 18.98,-18.1 6.91,-5.57 14.21,-10.41 21.97,-14.49 7.76,-4.07 15.85,-7.27 24.31,-9.58 8.42,-2.31 17.1,-3.47 26.01,-3.47zm34.23 45.64c0,-4.69 -0.92,-9.13 -2.71,-13.3 -1.83,-4.14 -4.26,-7.76 -7.36,-10.86 -3.11,-3.1 -6.73,-5.54 -10.87,-7.36 -4.16,-1.8 -8.61,-2.71 -13.29,-2.71 -4.69,0 -9.13,0.91 -13.3,2.71 -4.13,1.82 -7.75,4.26 -10.86,7.36 -3.1,3.1 -5.53,6.72 -7.36,10.86 -1.79,4.17 -2.71,8.61 -2.71,13.3 0,4.68 0.92,9.12 2.71,13.29 1.83,4.14 4.26,7.76 7.36,10.86 3.11,3.11 6.73,5.54 10.86,7.37 4.17,1.79 8.61,2.7 13.3,2.7 4.68,0 9.13,-0.91 13.29,-2.7 4.14,-1.83 7.76,-4.26 10.87,-7.37 3.1,-3.1 5.53,-6.72 7.36,-10.86 1.79,-4.17 2.71,-8.61 2.71,-13.29zm-109.71 0c5.57,5.41 11.5,10.34 17.83,14.84 6.29,4.48 13.02,8.25 20.23,11.26 -2.68,-3.8 -4.72,-7.94 -6.12,-12.41 -1.4,-4.5 -2.1,-9.07 -2.1,-13.69 0,-4.63 0.7,-9.19 2.1,-13.69 1.4,-4.48 3.44,-8.61 6.12,-12.42 -7.21,3.02 -13.94,6.79 -20.23,11.26 -6.33,4.5 -12.26,9.43 -17.83,14.85zm112.9 26.1c7.21,-3.01 13.93,-6.78 20.23,-11.26 6.33,-4.5 12.26,-9.43 17.83,-14.84 -5.57,-5.42 -11.5,-10.35 -17.83,-14.85 -6.3,-4.47 -13.02,-8.24 -20.23,-11.26 2.68,3.81 4.72,7.94 6.12,12.42 1.39,4.5 2.09,9.06 2.09,13.69 0,4.62 -0.7,9.19 -2.09,13.69 -1.4,4.47 -3.44,8.61 -6.12,12.41zm-37.42 -14.69c-1.61,0 -3.1,-0.31 -4.44,-0.89 -1.37,-0.6 -2.59,-1.43 -3.62,-2.46 -1.04,-1.04 -1.86,-2.25 -2.47,-3.62 -0.57,-1.34 -0.88,-2.83 -0.88,-4.44 0,-1.61 0.31,-3.11 0.88,-4.44 0.61,-1.37 1.43,-2.59 2.47,-3.62 1.03,-1.04 2.25,-1.86 3.62,-2.47 1.34,-0.58 2.83,-0.88 4.44,-0.88 1.61,0 3.1,0.3 4.44,0.88 1.37,0.61 2.59,1.43 3.62,2.47 1.04,1.03 1.86,2.25 2.47,3.62 0.57,1.33 0.88,2.83 0.88,4.44 0,1.61 -0.31,3.1 -0.88,4.44 -0.61,1.37 -1.43,2.58 -2.47,3.62 -1.03,1.03 -2.25,1.86 -3.62,2.46 -1.34,0.58 -2.83,0.89 -4.44,0.89z"/>
   <path class="fil1 str0" d="M20.61 65.75c-11.12,-15.7 -17.67,-26.17 -17.67,-26.17"/>
   <path class="fil1 str1" d="M50.73 49.83c-8.21,-17.4 -12.83,-28.85 -12.83,-28.85"/>
   <path class="fil1 str1" d="M80.5 38.06c-6.01,-18.28 -9.18,-30.21 -9.18,-30.21"/>
   <path class="fil1 str1" d="M106.79 35.07c-0.37,-19.24 0.11,-31.57 0.11,-31.57"/>
   <path class="fil1 str0" d="M192.36 65.75c11.12,-15.7 17.66,-26.17 17.66,-26.17"/>
   <path class="fil1 str1" d="M162.24 49.83c8.21,-17.4 12.82,-28.85 12.82,-28.85"/>
   <path class="fil1 str1" d="M132.47 38.06c6.01,-18.28 9.18,-30.21 9.18,-30.21"/>
   <polygon class="fil1" points="0,0 212.97,0 212.97,178.29 0,178.29 "/>
  </g>
 </g>
</svg>
