<?xml version="1.0" encoding="UTF-8"?>
<!DOCTYPE svg PUBLIC "-//W3C//DTD SVG 1.1//EN" "http://www.w3.org/Graphics/SVG/1.1/DTD/svg11.dtd">
<!-- Creator: CorelDRAW 2019 (64-Bit) -->
<svg xmlns="http://www.w3.org/2000/svg" xml:space="preserve" width="306px" height="306px" version="1.1" style="shape-rendering:geometricPrecision; text-rendering:geometricPrecision; image-rendering:optimizeQuality; fill-rule:evenodd; clip-rule:evenodd"
viewBox="0 0 30.56 30.56"
 xmlns:xlink="http://www.w3.org/1999/xlink">
 <defs>
  <style type="text/css">
   <![CDATA[
    .fil0 {fill:#61DAFB;fill-rule:nonzero}
   ]]>
  </style>
 </defs>
 <g id="Слой_x0020_1">
  <metadata id="CorelCorpID_0Corel-Layer"/>
  <path class="fil0" d="M30.56 5c0,0.65 -0.12,1.29 -0.37,1.91 -0.25,0.62 -0.62,1.16 -1.09,1.64l-19.66 19.65 -9.44 2.36 2.36 -9.44 19.65 -19.66c0.48,-0.48 1.02,-0.84 1.64,-1.09 0.62,-0.25 1.25,-0.37 1.91,-0.37 0.68,0 1.33,0.13 1.94,0.4 0.61,0.26 1.14,0.62 1.59,1.07 0.45,0.45 0.81,0.98 1.07,1.59 0.27,0.61 0.4,1.25 0.4,1.94zm-25.7 16.31c1.06,0.35 1.96,0.9 2.73,1.66 0.76,0.76 1.31,1.67 1.66,2.72l16.13 -16.14 -4.37 -4.37 -16.15 16.13zm-2.23 6.62l4.9 -1.22c-0.09,-0.46 -0.26,-0.89 -0.48,-1.3 -0.23,-0.41 -0.5,-0.77 -0.81,-1.09 -0.32,-0.32 -0.68,-0.59 -1.09,-0.81 -0.41,-0.23 -0.84,-0.39 -1.3,-0.48l-1.22 4.9zm24.11 -19.74c0.25,-0.25 0.49,-0.48 0.72,-0.7 0.23,-0.22 0.43,-0.45 0.61,-0.7 0.18,-0.24 0.32,-0.5 0.42,-0.79 0.11,-0.28 0.16,-0.61 0.16,-0.99 0,-0.43 -0.08,-0.82 -0.25,-1.2 -0.16,-0.37 -0.38,-0.7 -0.67,-0.98 -0.28,-0.29 -0.61,-0.51 -0.98,-0.68 -0.38,-0.16 -0.78,-0.24 -1.2,-0.24 -0.39,0 -0.71,0.05 -1,0.16 -0.28,0.1 -0.55,0.24 -0.79,0.42 -0.24,0.18 -0.48,0.38 -0.69,0.61 -0.22,0.23 -0.46,0.47 -0.7,0.72l4.37 4.37z"/>
 </g>
</svg>
