<?xml version="1.0" encoding="UTF-8"?>
<!DOCTYPE svg PUBLIC "-//W3C//DTD SVG 1.1//EN" "http://www.w3.org/Graphics/SVG/1.1/DTD/svg11.dtd">
<!-- Creator: CorelDRAW 2019 (64-Bit) -->
<svg xmlns="http://www.w3.org/2000/svg" xml:space="preserve" width="308px" height="368px" version="1.1" style="shape-rendering:geometricPrecision; text-rendering:geometricPrecision; image-rendering:optimizeQuality; fill-rule:evenodd; clip-rule:evenodd"
viewBox="0 0 45.1 53.92"
 xmlns:xlink="http://www.w3.org/1999/xlink">
 <defs>
  <style type="text/css">
   <![CDATA[
    .fil0 {fill:#61DAFB;fill-rule:nonzero}
   ]]>
  </style>
 </defs>
 <g id="Слой_x0020_1">
  <metadata id="CorelCorpID_0Corel-Layer"/>
  <path class="fil0" d="M45.1 0l0 53.92 -45.1 0 0 -53.92c18.52,0 26.58,0 45.1,0zm-41.34 7.7l37.58 0 0 -3.85c-12.52,0 -25.06,0 -37.58,0l0 3.85zm37.58 -3.85l1.3 0 0 7.7 -39.56 0.18 0 -7.7 0.68 -0.18 0 46.22 37.58 0 0 -46.22zm-33.82 15.41l15.03 0 0 3.85 -15.03 0 0 -3.85zm0 11.55l15.03 0 0 3.85 -15.03 0 0 -3.85zm0 11.56l15.03 0 0 3.85 -15.03 0 0 -3.85zm26.86 -28.32l2.64 2.71 -6.95 7.13 -5.09 -5.21 2.65 -2.7 2.44 2.5 4.31 -4.43zm0 11.56l2.64 2.71 -6.95 7.12 -5.09 -5.2 2.65 -2.7 2.44 2.49 4.31 -4.42zm0 11.55l2.64 2.71 -6.95 7.13 -5.09 -5.21 2.65 -2.7 2.44 2.5 4.31 -4.43z"/>
 </g>
</svg>
