<?xml version="1.0" encoding="UTF-8"?>
<!DOCTYPE svg PUBLIC "-//W3C//DTD SVG 1.1//EN" "http://www.w3.org/Graphics/SVG/1.1/DTD/svg11.dtd">
<!-- Creator: CorelDRAW 2019 (64-Bit) -->
<svg xmlns="http://www.w3.org/2000/svg" xml:space="preserve" width="257px" height="305px" version="1.1" style="shape-rendering:geometricPrecision; text-rendering:geometricPrecision; image-rendering:optimizeQuality; fill-rule:evenodd; clip-rule:evenodd"
viewBox="0 0 356.03 422.94"
 xmlns:xlink="http://www.w3.org/1999/xlink">
 <defs>
  <style type="text/css">
   <![CDATA[
    .fil0 {fill:#61DAFB;fill-rule:nonzero}
   ]]>
  </style>
 </defs>
 <g id="Слой_x0020_1">
  <metadata id="CorelCorpID_0Corel-Layer"/>
  <path class="fil0" d="M356.03 79.3l-27.39 0 0 303.95c0,5.57 -1.1,10.72 -3.21,15.51 -2.12,4.87 -5.04,9.02 -8.76,12.62 -3.73,3.59 -8.04,6.41 -13.08,8.46 -4.96,2.04 -10.3,3.1 -15.99,3.1l-219.1 0c-5.77,0 -11.1,-1.06 -16.06,-3.1 -5.04,-2.05 -9.35,-4.87 -13.07,-8.46 -3.73,-3.6 -6.66,-7.75 -8.77,-12.62 -2.12,-4.79 -3.22,-9.94 -3.22,-15.51l0 -303.95 -27.38 0 0 -26.44 109.54 0 0 -26.43c0,-3.73 0.74,-7.19 2.13,-10.29 1.46,-3.17 3.43,-5.99 5.91,-8.39 2.48,-2.39 5.4,-4.3 8.69,-5.71 3.22,-1.34 6.79,-2.04 10.66,-2.04l82.16 0c3.87,0 7.46,0.7 10.66,2.04 3.29,1.41 6.21,3.32 8.7,5.71 2.48,2.4 4.45,5.22 5.92,8.39 1.38,3.1 2.11,6.56 2.11,10.29l0 26.43 109.55 0 0 26.44zm-219.1 -26.44l82.16 0 0 -26.43 -82.16 0 0 26.43zm164.32 26.44l-246.48 0 0 303.95c0,3.6 1.39,6.7 4.09,9.31 2.7,2.6 5.92,3.94 9.64,3.94l219.1 0c3.65,0 6.86,-1.34 9.57,-3.94 2.7,-2.61 4.08,-5.71 4.08,-9.31l0 -303.95zm-164.32 264.34l-27.39 0 0 -211.47 27.39 0 0 211.47zm54.78 0l-27.39 0 0 -211.47 27.39 0 0 211.47zm54.77 0l-27.39 0 0 -211.47 27.39 0 0 211.47z"/>
 </g>
</svg>
